<?xml version="1.0" encoding="utf-8" ?>
<svg baseProfile="full" height="200mm" version="1.1" viewBox="0,0,200,200" width="200mm" xmlns="http://www.w3.org/2000/svg" xmlns:ev="http://www.w3.org/2001/xml-events" xmlns:xlink="http://www.w3.org/1999/xlink"><defs /><rect fill="#1a1a1a" height="200" width="200" x="0" y="0" /><text alignment-baseline="middle" fill="#e1ed5e" style="dominant-baseline: central; font-size:9.0px; font-family:Arial;" text-anchor="middle" x="100.0" y="100.0">2023</text><line stroke="#e1ed5e" stroke-width="0.3" x1="100.0" x2="100.0" y1="15.0" y2="10.0" /><path d="M 100.0 14.0 a86.0,86.0 0 0,1 42.46469731375804,11.215312516191453" fill="none" id="id37" stroke="none" /><text fill="#e1ed5e" style="font-size:6.75px; font-family:Arial;" text-anchor="middle"><textPath startOffset="22.20632615414155" xlink:href="#id37">January</textPath></text><path d="M 102.88285421437855 79.19881850522331 l 2.5744114500283515 -18.57561840872157 a39.753164895037656,39.753164895037656 0 0,0 0.6769983282190517,0.09977195533462001 l -2.893778758676059 18.52855196922598" fill="#ff0000" stroke="none" /><path d="M 103.59715602781102 79.31037775812273 l 6.432967510234708 -37.00024871092911 a58.55531221622776,58.55531221622776 0 0,0 0.9915502242587382,0.18119946565375147 l -7.068912855596348 36.88403376392461" fill="#aaff21" stroke="none" /><path d="M 103.95276090670814 79.375362276772 l 7.072994904856344 -36.90533299986193 a58.576999091928855,58.576999091928855 0 0,0 0.9886502909901563,0.19831394763357627 l -7.707211605313626 36.77811509615115" fill="#aaff21" stroke="none" /><path d="M 104.66035177308747 79.52364482259891 l 9.421606057723023 -41.39604934836947 a63.454676566422734,63.454676566422734 0 0,0 1.0629453413105594,0.2515648199016058 l -10.132775085996105 41.227738616326995" fill="#60ff29" stroke="none" /><path d="M 106.40334571778207 80.00007090966166 l 9.189039963505577 -28.70064428475881 a51.135783344906784,51.135783344906784 0 0,0 0.8359901343045996,0.27561280351888456 l -9.681712920052593 28.53821775698069" fill="#ffd914" stroke="none" /><line stroke="#e1ed5e" stroke-width="0.3" x1="143.23703022742887" x2="145.7803849466894" y1="26.81831364943548" y2="22.513508569990506" /><path d="M 143.74570117128098 25.957352633546492 a86.0,86.0 0 0,1 28.547481713284135,27.462654790039103" fill="none" id="id38" stroke="none" /><text fill="#e1ed5e" style="font-size:6.75px; font-family:Arial;" text-anchor="middle"><textPath startOffset="19.985693538727396" xlink:href="#id38">February</textPath></text><path d="M 111.60114157652 82.49532879139004 l 22.527651662754348 -33.99140790219545 a61.77880455103894,61.77880455103894 0 0,0 0.8813638013650968,0.5951007730049468 l -23.109420158525985 33.59859521689183" fill="#79ff26" stroke="none" /><path d="M 116.60985879189232 87.15038557335679 l 29.809791620596805 -23.061263389561258 a58.68879867528444,58.68879867528444 0 0,0 0.6112691576013277,0.8043585592380901 l -30.202336718422245 22.544720054442134" fill="#a8ff21" stroke="none" /><path d="M 117.04232023915458 87.72973835380427 l 30.525850318153804 -21.978238005163515 a58.61476416858073,58.61476416858073 0 0,0 0.5824838845311594,0.8238821462793612 l -30.899646822488847 21.44952935855236" fill="#a9ff21" stroke="none" /><path d="M 117.2510076193507 88.02491185347247 l 46.987133674393 -32.61693924894959 a78.19838683830991,78.19838683830991 0 0,0 0.7580608754500966,1.1123607949240653 l -47.541619015511834 31.80330043075512" fill="#43ffde" stroke="none" /><path d="M 117.45458315368197 88.32363383020206 l 16.456965292753612 -11.009002684851417 a40.799743603439985,40.799743603439985 0 0,0 0.38546697178364164,0.5870926433953336 l -16.644028899895176 10.724091977478409" fill="#ff1502" stroke="none" /><path d="M 117.65298651832404 88.62581576622439 l 47.24593348875311 -30.441531875639 a77.20378184926018,77.20378184926018 0 0,0 0.7101733389868784,1.1233236737809866 l -47.762934423985946 29.623760554143807" fill="#41ffd0" stroke="none" /><line stroke="#e1ed5e" stroke-width="0.3" x1="172.23445277983987" x2="176.4835382374775" y1="55.19839476539836" y2="52.563006222186495" /><path d="M 173.08426987136738 54.67131705675599 a86.0,86.0 0 0,1 12.851231095245387,41.99856678651699" fill="none" id="id39" stroke="none" /><text fill="#e1ed5e" style="font-size:6.75px; font-family:Arial;" text-anchor="middle"><textPath startOffset="22.20632615414155" xlink:href="#id39">March</textPath></text><path d="M 118.03404312379186 89.2402003453031 l 32.363534220106786 -19.309321927198432 a58.6861812937343,58.6861812937343 0 0,0 0.5101235541643642,0.8719665130465148 l -32.69111744874148 18.74937600179802" fill="#a8ff21" stroke="none" /><path d="M 118.3937258080291 89.86733742301442 l 32.7682966009035 -18.051269011230094 a58.41135623097056,58.41135623097056 0 0,0 0.4775598465963192,0.8848458669720864 l -33.074164546718286 17.48454216092555" fill="#acff20" stroke="none" /><path d="M 118.89224826269711 90.83032412892265 l 43.79464198966088 -21.25647865468675 a69.68067945088401,69.68067945088401 0 0,0 0.514448495066604,1.083559731333644 l -44.15404867856924 20.499476507712565" fill="#34ff5d" stroke="none" /><path d="M 119.34039704204932 91.81776055985345 l 34.51126027384753 -14.600496273571684 a58.47267774157363,58.47267774157363 0 0,0 0.38418863990615815,0.9303432651023271 l -34.75747060063989 14.004278438016055" fill="#abff21" stroke="none" /><path d="M 119.47837535516314 92.15188598940014 l 52.11747769432595 -20.998871796643183 a77.18882538325943,77.18882538325943 0 0,0 0.48594574251057254,1.2366789100534843 l -52.47121698671822 20.098643881693913" fill="#41ffd0" stroke="none" /><path d="M 120.08093135843002 93.85539295169968 l 42.32859960826694 -12.95221854281433 a65.2659045991133,65.2659045991133 0 0,0 0.31947381487900356,1.077106884831294 l -42.54527932025765 12.221682271236507" fill="#47ff2c" stroke="none" /><path d="M 120.28053869075195 94.5502522615342 l 36.582100905293665 -9.83027249507246 a58.879867528443995,58.879867528443995 0 0,0 0.25459561669396996,0.9810607672101299 l -36.74589285385794 9.19911530231348" fill="#a5ff21" stroke="none" /><path d="M 120.37134235888165 94.90015583598534 l 31.407406362074735 -7.862657021844709 a53.376635863468834,53.376635863468834 0 0,0 0.21545656922115103,0.893206577464816 l -31.538095731556705 7.320865212720487" fill="#ffff18" stroke="none" /><path d="M 120.78858239683441 97.02765380044208 l 26.50513718444744 -3.7896977424949414 a47.77469152288873,47.77469152288873 0 0,0 0.10939039581896033,0.8150855088652286 l -26.566443579324236 3.332893891565049" fill="#ff9c0e" stroke="none" /><path d="M 120.83666639777658 97.38593545837742 l 55.7228621977824 -6.990713171109145 a77.15966027455798,77.15966027455798 0 0,0 0.15398733926046326,1.3192694843003407 l -55.83493989004645 6.030499948483951" fill="#41ffd0" stroke="none" /><path d="M 120.96714384426684 98.82574320788733 l 37.57345925620492 -2.104287072310587 a58.63233801613161,58.63233801613161 0 0,0 0.047761321156666925,1.0081660023976755 l -37.60411418559508 1.4572099632899118" fill="#a9ff21" stroke="none" /><line stroke="#e1ed5e" stroke-width="0.3" x1="184.98032266829074" x2="189.97916517819016" y1="98.17113171792111" y2="98.06355123074" /><path d="M 185.9800911702706 98.14961562048488 a86.0,86.0 0 0,1 -9.607161424134198,41.387399972396054" fill="none" id="id40" stroke="none" /><text fill="#e1ed5e" style="font-size:6.75px; font-family:Arial;" text-anchor="middle"><textPath startOffset="21.466115282336823" xlink:href="#id40">April</textPath></text><path d="M 120.99513854157772 99.54816195383933 l 62.98541562473312 -1.355514138482002 a84.0,84.0 0 0,0 0.018667971529137795,1.4458549677581491 l -62.99941660337998 0.27112291266339017" fill="#4dd2ff" stroke="none" /><path d="M 120.99980553446 99.90962569577887 l 42.93026854760294 -0.18475376563127055 a63.93066609689653,63.93066609689653 0 0,0 -0.004736052882419988,1.1004918974358633 l -42.92708819743102 -0.5542476100082775" fill="#59ff2a" stroke="none" /><path d="M 120.8583938346157 102.4346265915055 l 18.622624184055965 2.1736638209828665 a39.749051866887456,39.749051866887456 0 0,0 -0.08517368299422332,0.6789180565981909 l -18.582448991814896 -2.4938996318684525" fill="#ff0000" stroke="none" /><path d="M 120.81339534386255 102.79330883721812 l 33.614654453294804 4.511330794094087 a54.9160301265958,54.9160301265958 0 0,0 -0.13380146646800878,0.9358071448410744 l -33.5320189358102 -5.089283410915571" fill="#e5ff1a" stroke="none" /><line stroke="#e1ed5e" stroke-width="0.3" x1="174.80103733775053" x2="179.2010983576182" y1="140.37084112569926" y2="142.7455964860345" /><path d="M 175.68104954172406 140.8457921977663 a86.0,86.0 0 0,1 -30.038265399797805,32.042727171017184" fill="none" id="id41" stroke="none" /><text fill="#e1ed5e" style="font-size:6.75px; font-family:Arial;" text-anchor="middle"><textPath startOffset="22.206326154141568" xlink:href="#id41">May</textPath></text><line stroke="#e1ed5e" stroke-width="0.3" x1="143.8653032363475" x2="146.44561519142675" y1="172.8068346515853" y2="177.08958963109032" /><path d="M 144.38136562736335 173.6633856474863 a86.0,86.0 0 0,1 -40.68145358897372,12.25698825130547" fill="none" id="id42" stroke="none" /><text fill="#e1ed5e" style="font-size:6.75px; font-family:Arial;" text-anchor="middle"><textPath startOffset="21.466115282336833" xlink:href="#id42">June</textPath></text><line stroke="#e1ed5e" stroke-width="0.3" x1="102.19456741930631" x2="102.32365962044197" y1="184.97166512339345" y2="189.96999836594603" /><path d="M 102.22038585953345 185.97133177190398 a86.0,86.0 0 0,1 -42.740103519485714,-10.115201625700543" fill="none" id="id43" stroke="none" /><text fill="#e1ed5e" style="font-size:6.75px; font-family:Arial;" text-anchor="middle"><textPath startOffset="22.20632615414155" xlink:href="#id43">July</textPath></text><line stroke="#e1ed5e" stroke-width="0.3" x1="58.666819895761336" x2="56.23545636021788" y1="174.27360380694188" y2="178.64263932499728" /><path d="M 58.180547188652646 175.14741091055294 a86.0,86.0 0 0,1 -31.652253787137756,-30.449443065178592" fill="none" id="id44" stroke="none" /><text fill="#e1ed5e" style="font-size:6.75px; font-family:Arial;" text-anchor="middle"><textPath startOffset="22.20632615414155" xlink:href="#id44">August</textPath></text><line stroke="#e1ed5e" stroke-width="0.3" x1="26.63291911575756" x2="22.317208475507996" y1="142.92168965132927" y2="145.44649492493687" /><path d="M 25.769776987707644 143.4266507060508 a86.0,86.0 0 0,1 -11.730757126820373,-40.83630448921669" fill="none" id="id45" stroke="none" /><text fill="#e1ed5e" style="font-size:6.75px; font-family:Arial;" text-anchor="middle"><textPath startOffset="21.46611528233685" xlink:href="#id45">September</textPath></text><line stroke="#e1ed5e" stroke-width="0.3" x1="15.007084014347285" x2="10.007500721073583" y1="101.09737516637583" y2="101.16192664675087" /><path d="M 14.007167355692545 101.11028546245083 a86.0,86.0 0 0,1 10.666146001902534,-42.60595125391555" fill="none" id="id46" stroke="none" /><text fill="#e1ed5e" style="font-size:6.75px; font-family:Arial;" text-anchor="middle"><textPath startOffset="22.20632615414155" xlink:href="#id46">October</textPath></text><line stroke="#e1ed5e" stroke-width="0.3" x1="26.266209847984243" x2="21.928928074336255" y1="57.711370442889674" y2="55.22380399835377" /><path d="M 25.398753493254645 57.213857153982495 a86.0,86.0 0 0,1 29.58750427330803,-30.492523968695096" fill="none" id="id47" stroke="none" /><text fill="#e1ed5e" style="font-size:6.75px; font-family:Arial;" text-anchor="middle"><textPath startOffset="21.46611528233685" xlink:href="#id47">November</textPath></text><line stroke="#e1ed5e" stroke-width="0.3" x1="56.762969772571076" x2="54.21961505331055" y1="26.818313649435495" y2="22.513508569990535" /><path d="M 56.25429882871897 25.957352633546506 a86.0,86.0 0 0,1 42.265352541879196,-11.944610805530505" fill="none" id="id48" stroke="none" /><text fill="#e1ed5e" style="font-size:6.75px; font-family:Arial;" text-anchor="middle"><textPath startOffset="22.20632615414155" xlink:href="#id48">December</textPath></text></svg>