<?xml version="1.0" encoding="utf-8" ?>
<svg baseProfile="full" height="200mm" version="1.1" viewBox="0,0,200,200" width="200mm" xmlns="http://www.w3.org/2000/svg" xmlns:ev="http://www.w3.org/2001/xml-events" xmlns:xlink="http://www.w3.org/1999/xlink"><defs /><rect fill="#1a1a1a" height="200" width="200" x="0" y="0" /><text alignment-baseline="middle" fill="#e1ed5e" style="dominant-baseline: central; font-size:9.0px; font-family:Arial;" text-anchor="middle" x="100.0" y="100.0">2023</text><line stroke="#e1ed5e" stroke-width="0.3" x1="100.0" x2="100.0" y1="15.0" y2="10.0" /><path d="M 100.0 14.0 a86.0,86.0 0 0,1 42.46469731375804,11.215312516191453" fill="none" id="id49" stroke="none" /><text fill="#e1ed5e" style="font-size:6.75px; font-family:Arial;" text-anchor="middle"><textPath startOffset="22.20632615414155" xlink:href="#id49">January</textPath></text><path d="M 102.88285421437855 79.19881850522331 l 1.2608115280234455 -9.097362362035316 a30.18431530683554,30.18431530683554 0 0,0 0.5140403551545965,0.07575618611879656 l -1.4172208636066979 9.07431169175555" fill="#ff0000" stroke="none" /><path d="M 103.59715602781102 79.31037775812273 l 3.1505296467722284 -18.12077867893273 a39.392619633593625,39.392619633593625 0 0,0 0.6670575111544548,0.12190049643916802 l -3.461982279029584 18.06386270114282" fill="#ff940d" stroke="none" /><path d="M 103.95276090670814 79.375362276772 l 3.463981452380413 -18.074293948334326 a39.40324072638377,39.40324072638377 0 0,0 0.6650396232992093,0.1334006920658721 l -3.7745874851467476 18.011989300191242" fill="#ff940d" stroke="none" /><path d="M 104.66035177308747 79.52364482259891 l 4.614207853193746 -20.273610977171852 a41.79207099271686,41.79207099271686 0 0,0 0.7000695546675432,0.16568384524965257 l -4.962501094823813 20.19118121978133" fill="#ffb811" stroke="none" /><path d="M 106.40334571778207 80.00007090966166 l 4.500309193904643 -14.056068300786038 a35.758924043340855,35.758924043340855 0 0,0 0.5846025182003592,0.19273425890298124 l -4.74159453434742 13.97652031762382" fill="#ff5b08" stroke="none" /><line stroke="#e1ed5e" stroke-width="0.3" x1="143.23703022742887" x2="145.7803849466894" y1="26.81831364943548" y2="22.513508569990506" /><path d="M 143.74570117128098 25.957352633546492 a86.0,86.0 0 0,1 28.547481713284135,27.462654790039103" fill="none" id="id50" stroke="none" /><text fill="#e1ed5e" style="font-size:6.75px; font-family:Arial;" text-anchor="middle"><textPath startOffset="19.985693538727396" xlink:href="#id50">February</textPath></text><path d="M 111.60114157652 82.49532879139004 l 11.032860701184513 -16.647206465914106 a40.971316891244655,40.971316891244655 0 0,0 0.5845149621237551,0.3946671116445275 l -11.31778035771481 16.45482744197091" fill="#ffac0f" stroke="none" /><path d="M 116.60985879189232 87.15038557335679 l 14.59927041686023 -11.294195701321817 a39.45799429093981,39.45799429093981 0 0,0 0.41097203342514793,0.5407910223872257 l -14.791518390509491 11.041219903053559" fill="#ff950d" stroke="none" /><path d="M 117.04232023915458 87.72973835380427 l 14.949958361715115 -10.763786745218217 a39.42173607762176,39.42173607762176 0 0,0 0.39175327737245896,0.5541072286203821 l -15.133024258891458 10.504853016266042" fill="#ff940d" stroke="none" /><path d="M 117.2510076193507 88.02491185347247 l 23.011830453442446 -15.974063902436088 a49.012765989403704,49.012765989403704 0 0,0 0.4751333345402948,0.6971995400637937 l -23.283388253651477 15.575586339101887" fill="#e0ff1b" stroke="none" /><path d="M 117.45458315368197 88.32363383020206 l 8.059757331003553 -5.391631355954725 a30.696874595104326,30.696874595104326 0 0,0 0.2900172954125969,0.4417162378563419 l -8.151371261774074 5.252097054120709" fill="#ff0901" stroke="none" /><path d="M 117.65298651832404 88.62581576622439 l 23.138577011142836 -14.908663616717584 a48.52566069937335,48.52566069937335 0 0,0 0.44637231052624327,0.7060537987102774 l -23.391776917915035 14.508162170293101" fill="#e6ff1a" stroke="none" /><line stroke="#e1ed5e" stroke-width="0.3" x1="172.23445277983987" x2="176.4835382374775" y1="55.19839476539836" y2="52.563006222186495" /><path d="M 173.08426987136738 54.67131705675599 a86.0,86.0 0 0,1 12.851231095245387,41.99856678651699" fill="none" id="id51" stroke="none" /><text fill="#e1ed5e" style="font-size:6.75px; font-family:Arial;" text-anchor="middle"><textPath startOffset="22.20632615414155" xlink:href="#id51">March</textPath></text><path d="M 118.03404312379186 89.2402003453031 l 15.849959427364475 -9.456691813524824 a39.45671243491341,39.45671243491341 0 0,0 0.3429733872476085,0.5862526952630975 l -16.01039248908241 9.182459705907831" fill="#ff950d" stroke="none" /><path d="M 118.3937258080291 89.86733742301442 l 16.048190784598802 -8.840563564367557 a39.32211755214187,39.32211755214187 0 0,0 0.3214899573943907,0.5956720651891827 l -16.197988841211657 8.563010515845916" fill="#ff930d" stroke="none" /><path d="M 118.89224826269711 90.83032412892265 l 21.448315686141004 -10.410306919944057 a44.841240234933196,44.841240234933196 0 0,0 0.33106032744760744,0.6972974805143806 l -21.62433420743037 10.039567023789136" fill="#ffe415" stroke="none" /><path d="M 119.34039704204932 91.81776055985345 l 16.901802856495745 -7.150556301472249 a39.35214960761742,39.35214960761742 0 0,0 0.25855920096481144,0.6261216138681452 l -17.022383744346754 6.858560117150801" fill="#ff930d" stroke="none" /><path d="M 119.47837535516314 92.15188598940014 l 25.524403524458883 -10.284144609597103 a48.51833580779394,48.51833580779394 0 0,0 0.30544937822838175,0.7773353506348937 l -25.697646452568964 9.843260254066426" fill="#e6ff1a" stroke="none" /><path d="M 120.08093135843002 93.85539295169968 l 60.24279407529006 -18.433821144900946 a84.0,84.0 0 0,0 0.41117641155319085,1.3862824530138804 l -60.551176383954946 17.394109305140535" fill="#4dd2ff" stroke="none" /><line stroke="#e1ed5e" stroke-width="0.3" x1="184.98032266829074" x2="189.97916517819016" y1="98.17113171792111" y2="98.06355123074" /><path d="M 185.9800911702706 98.14961562048488 a86.0,86.0 0 0,1 -9.607161424134198,41.387399972396054" fill="none" id="id52" stroke="none" /><text fill="#e1ed5e" style="font-size:6.75px; font-family:Arial;" text-anchor="middle"><textPath startOffset="21.466115282336823" xlink:href="#id52">April</textPath></text><line stroke="#e1ed5e" stroke-width="0.3" x1="174.80103733775053" x2="179.2010983576182" y1="140.37084112569926" y2="142.7455964860345" /><path d="M 175.68104954172406 140.8457921977663 a86.0,86.0 0 0,1 -30.038265399797805,32.042727171017184" fill="none" id="id53" stroke="none" /><text fill="#e1ed5e" style="font-size:6.75px; font-family:Arial;" text-anchor="middle"><textPath startOffset="22.206326154141568" xlink:href="#id53">May</textPath></text><line stroke="#e1ed5e" stroke-width="0.3" x1="143.8653032363475" x2="146.44561519142675" y1="172.8068346515853" y2="177.08958963109032" /><path d="M 144.38136562736335 173.6633856474863 a86.0,86.0 0 0,1 -40.68145358897372,12.25698825130547" fill="none" id="id54" stroke="none" /><text fill="#e1ed5e" style="font-size:6.75px; font-family:Arial;" text-anchor="middle"><textPath startOffset="21.466115282336833" xlink:href="#id54">June</textPath></text><line stroke="#e1ed5e" stroke-width="0.3" x1="102.19456741930631" x2="102.32365962044197" y1="184.97166512339345" y2="189.96999836594603" /><path d="M 102.22038585953345 185.97133177190398 a86.0,86.0 0 0,1 -42.740103519485714,-10.115201625700543" fill="none" id="id55" stroke="none" /><text fill="#e1ed5e" style="font-size:6.75px; font-family:Arial;" text-anchor="middle"><textPath startOffset="22.20632615414155" xlink:href="#id55">July</textPath></text><line stroke="#e1ed5e" stroke-width="0.3" x1="58.666819895761336" x2="56.23545636021788" y1="174.27360380694188" y2="178.64263932499728" /><path d="M 58.180547188652646 175.14741091055294 a86.0,86.0 0 0,1 -31.652253787137756,-30.449443065178592" fill="none" id="id56" stroke="none" /><text fill="#e1ed5e" style="font-size:6.75px; font-family:Arial;" text-anchor="middle"><textPath startOffset="22.20632615414155" xlink:href="#id56">August</textPath></text><line stroke="#e1ed5e" stroke-width="0.3" x1="26.63291911575756" x2="22.317208475507996" y1="142.92168965132927" y2="145.44649492493687" /><path d="M 25.769776987707644 143.4266507060508 a86.0,86.0 0 0,1 -11.730757126820373,-40.83630448921669" fill="none" id="id57" stroke="none" /><text fill="#e1ed5e" style="font-size:6.75px; font-family:Arial;" text-anchor="middle"><textPath startOffset="21.46611528233685" xlink:href="#id57">September</textPath></text><line stroke="#e1ed5e" stroke-width="0.3" x1="15.007084014347285" x2="10.007500721073583" y1="101.09737516637583" y2="101.16192664675087" /><path d="M 14.007167355692545 101.11028546245083 a86.0,86.0 0 0,1 10.666146001902534,-42.60595125391555" fill="none" id="id58" stroke="none" /><text fill="#e1ed5e" style="font-size:6.75px; font-family:Arial;" text-anchor="middle"><textPath startOffset="22.20632615414155" xlink:href="#id58">October</textPath></text><line stroke="#e1ed5e" stroke-width="0.3" x1="26.266209847984243" x2="21.928928074336255" y1="57.711370442889674" y2="55.22380399835377" /><path d="M 25.398753493254645 57.213857153982495 a86.0,86.0 0 0,1 29.58750427330803,-30.492523968695096" fill="none" id="id59" stroke="none" /><text fill="#e1ed5e" style="font-size:6.75px; font-family:Arial;" text-anchor="middle"><textPath startOffset="21.46611528233685" xlink:href="#id59">November</textPath></text><line stroke="#e1ed5e" stroke-width="0.3" x1="56.762969772571076" x2="54.21961505331055" y1="26.818313649435495" y2="22.513508569990535" /><path d="M 56.25429882871897 25.957352633546506 a86.0,86.0 0 0,1 42.265352541879196,-11.944610805530505" fill="none" id="id60" stroke="none" /><text fill="#e1ed5e" style="font-size:6.75px; font-family:Arial;" text-anchor="middle"><textPath startOffset="22.20632615414155" xlink:href="#id60">December</textPath></text></svg>