<?xml version="1.0" encoding="utf-8" ?>
<svg baseProfile="full" height="200mm" version="1.1" viewBox="0,0,200,200" width="200mm" xmlns="http://www.w3.org/2000/svg" xmlns:ev="http://www.w3.org/2001/xml-events" xmlns:xlink="http://www.w3.org/1999/xlink"><defs /><rect fill="#1a1a1a" height="200" width="200" x="0" y="0" /><text alignment-baseline="middle" fill="#e1ed5e" style="dominant-baseline: central; font-size:9.0px; font-family:Arial;" text-anchor="middle" x="100.0" y="100.0">2021</text><line stroke="#e1ed5e" stroke-width="0.3" x1="100.0" x2="100.0" y1="15.0" y2="10.0" /><path d="M 100.0 14.0 a86.0,86.0 0 0,1 42.46469731375804,11.215312516191453" fill="none" id="id25" stroke="none" /><text fill="#e1ed5e" style="font-size:6.75px; font-family:Arial;" text-anchor="middle"><textPath startOffset="22.20632615414155" xlink:href="#id25">January</textPath></text><line stroke="#e1ed5e" stroke-width="0.3" x1="143.23703022742887" x2="145.7803849466894" y1="26.81831364943548" y2="22.513508569990506" /><path d="M 143.74570117128098 25.957352633546492 a86.0,86.0 0 0,1 28.547481713284135,27.462654790039103" fill="none" id="id26" stroke="none" /><text fill="#e1ed5e" style="font-size:6.75px; font-family:Arial;" text-anchor="middle"><textPath startOffset="19.985693538727396" xlink:href="#id26">February</textPath></text><line stroke="#e1ed5e" stroke-width="0.3" x1="172.23445277983987" x2="176.4835382374775" y1="55.19839476539836" y2="52.563006222186495" /><path d="M 173.08426987136738 54.67131705675599 a86.0,86.0 0 0,1 12.851231095245387,41.99856678651699" fill="none" id="id27" stroke="none" /><text fill="#e1ed5e" style="font-size:6.75px; font-family:Arial;" text-anchor="middle"><textPath startOffset="22.20632615414155" xlink:href="#id27">March</textPath></text><line stroke="#e1ed5e" stroke-width="0.3" x1="184.98032266829074" x2="189.97916517819016" y1="98.17113171792111" y2="98.06355123074" /><path d="M 185.9800911702706 98.14961562048488 a86.0,86.0 0 0,1 -9.607161424134198,41.387399972396054" fill="none" id="id28" stroke="none" /><text fill="#e1ed5e" style="font-size:6.75px; font-family:Arial;" text-anchor="middle"><textPath startOffset="21.466115282336823" xlink:href="#id28">April</textPath></text><path d="M 120.8583938346157 102.4346265915055 l 31.736294115300986 3.7043132938032923 a52.95174957888121,52.95174957888121 0 0,0 -0.11346422922802381,0.9044215453983144 l -31.66782837682611 -4.250052593489002" fill="#c2ff1e" stroke="none" /><path d="M 119.9155931802556 106.66101706037122 l 29.412308522919695 9.83731125067878 a52.01381281445649,52.01381281445649 0 0,0 -0.29130006212297915,0.8466543350659416 l -29.238617629853486 -10.342138288834022" fill="#cfff1d" stroke="none" /><path d="M 119.41010516605496 108.01547362559984 l 41.49089360424748 17.133815635838108 a65.88944074414243,65.88944074414243 0 0,0 -0.44192681326666494,1.044584443492135 l -41.189815809788506 -17.845474604996408" fill="#32ff46" stroke="none" /><path d="M 118.81262510543309 109.33194174019688 l 25.957650979572236 12.876208678807666 a49.97578979626766,49.97578979626766 0 0,0 -0.3889100022375173,0.767356330316094 l -25.73216230754845 -13.321119220826453" fill="#ecff1a" stroke="none" /><line stroke="#e1ed5e" stroke-width="0.3" x1="174.80103733775053" x2="179.2010983576182" y1="140.37084112569926" y2="142.7455964860345" /><path d="M 175.68104954172406 140.8457921977663 a86.0,86.0 0 0,1 -30.038265399797805,32.042727171017184" fill="none" id="id29" stroke="none" /><text fill="#e1ed5e" style="font-size:6.75px; font-family:Arial;" text-anchor="middle"><textPath startOffset="22.206326154141568" xlink:href="#id29">May</textPath></text><path d="M 118.30583269289576 110.29060199501025 l 25.28234508422016 14.212440107309732 a50.00328303419214,50.00328303419214 0 0,0 -0.42823764950128773,0.7466684381643937 l -25.033955438566494 -14.64552839133244" fill="#ecff1a" stroke="none" /><path d="M 117.35343817320211 111.8261652097733 l 23.98451110057051 16.345163875882783 a50.02449232739228,50.02449232739228 0 0,0 -0.4910477841925392,0.7073909572036922 l -23.699602409215835 -16.755596095273493" fill="#ecff1a" stroke="none" /><path d="M 116.93607887273984 112.41649034213515 l 23.747378514975743 17.41011589505682 a50.44571482937444,50.44571482937444 0 0,0 -0.5194436893030733,0.6958797080959871 l -23.444173558977578 -17.81630848266212" fill="#e6ff1a" stroke="none" /><path d="M 115.56566222782051 114.09645910891815 l 10.503372779187064 9.5119862374314 a35.17034657020258,35.17034657020258 0 0,0 -0.4102429868764982,0.44523773828050167 l -10.338083384314842 -9.691375230513234" fill="#ff2603" stroke="none" /><path d="M 112.92097659922987 116.55440617244103 l 17.09121041603783 21.897326183735114 a48.77773150352943,48.77773150352943 0 0,0 -0.6663299932200217,0.5109134250325759 l -16.711751694324313 -22.188278950595063" fill="#feff18" stroke="none" /><line stroke="#e1ed5e" stroke-width="0.3" x1="143.8653032363475" x2="146.44561519142675" y1="172.8068346515853" y2="177.08958963109032" /><path d="M 144.38136562736335 173.6633856474863 a86.0,86.0 0 0,1 -40.68145358897372,12.25698825130547" fill="none" id="id30" stroke="none" /><text fill="#e1ed5e" style="font-size:6.75px; font-family:Arial;" text-anchor="middle"><textPath startOffset="21.466115282336833" xlink:href="#id30">June</textPath></text><path d="M 100.90346689309514 120.98055641714683 l 1.436166022860926 33.35104196657037 a54.381949809757344,54.381949809757344 0 0,0 -0.9355757953578973,0.032223122069755306 l -0.8618698758283765 -33.37082188706622" fill="#aeff20" stroke="none" /><line stroke="#e1ed5e" stroke-width="0.3" x1="102.19456741930631" x2="102.32365962044197" y1="184.97166512339345" y2="189.96999836594603" /><path d="M 102.22038585953345 185.97133177190398 a86.0,86.0 0 0,1 -42.740103519485714,-10.115201625700543" fill="none" id="id31" stroke="none" /><text fill="#e1ed5e" style="font-size:6.75px; font-family:Arial;" text-anchor="middle"><textPath startOffset="22.20632615414155" xlink:href="#id31">July</textPath></text><path d="M 99.81925306533755 120.99922214144158 l -0.30209976485897944 35.09802300657754 a56.09932311652426,56.09932311652426 0 0,0 -0.9655503211451405,-0.016622824415063617 l 0.9062097758967878 -35.08762270488332" fill="#97ff23" stroke="none" /><path d="M 98.73552117531835 120.96189622390904 l -2.1730849155306786 36.024312622684384 a57.0897963140138,57.0897963140138 0 0,0 -0.9804145966847215,-0.06761513074083832 l 2.7928622729943307 -35.98156914742726" fill="#8aff24" stroke="none" /><path d="M 96.58105272829116 120.7198165907248 l -10.256841815126537 62.1594497721744 a84.0,84.0 0 0,0 -1.4246041141118002,-0.24768568591597528 l 11.325294900710388 -61.97368550773742" fill="#4dd2ff" stroke="none" /><path d="M 93.42475214034765 119.94407469862007 l -11.893618402889892 36.075782833935634 a58.98579031420626,58.98579031420626 0 0,0 -0.961553397674811,-0.3262111191688352 l 12.512841533501929 -35.86570872786868" fill="#71ff27" stroke="none" /><path d="M 90.10565033884886 118.52300852407294 l -24.069906008685816 45.06077604302602 a72.08653357653773,72.08653357653773 0 0,0 -1.0894581585075418,-0.5940594532215894 l 24.841986979062 -44.63977593804466" fill="#3bff9c" stroke="none" /><line stroke="#e1ed5e" stroke-width="0.3" x1="58.666819895761336" x2="56.23545636021788" y1="174.27360380694188" y2="178.64263932499728" /><path d="M 58.180547188652646 175.14741091055294 a86.0,86.0 0 0,1 -31.652253787137756,-30.449443065178592" fill="none" id="id32" stroke="none" /><text fill="#e1ed5e" style="font-size:6.75px; font-family:Arial;" text-anchor="middle"><textPath startOffset="22.20632615414155" xlink:href="#id32">August</textPath></text><path d="M 84.43433777217949 114.09645910891817 l -44.64434381908132 40.43047818199261 a81.2307313674749,81.2307313674749 0 0,0 -0.9296708295602728,-1.0444950323837734 l 45.33367349828993 -39.65600897986798" fill="#49f1ff" stroke="none" /><line stroke="#e1ed5e" stroke-width="0.3" x1="26.63291911575756" x2="22.317208475507996" y1="142.92168965132927" y2="145.44649492493687" /><path d="M 25.769776987707644 143.4266507060508 a86.0,86.0 0 0,1 -11.730757126820373,-40.83630448921669" fill="none" id="id33" stroke="none" /><text fill="#e1ed5e" style="font-size:6.75px; font-family:Arial;" text-anchor="middle"><textPath startOffset="21.46611528233685" xlink:href="#id33">September</textPath></text><path d="M 79.04373962182676 101.35467743843564 l -29.945213614326164 1.9357511569533008 a51.00771485717083,51.00771485717083 0 0,0 -0.04909771667389004,-0.8766727131928603 l 29.974097681887585 -1.4200067274250028" fill="#ddff1b" stroke="none" /><line stroke="#e1ed5e" stroke-width="0.3" x1="15.007084014347285" x2="10.007500721073583" y1="101.09737516637583" y2="101.16192664675087" /><path d="M 14.007167355692545 101.11028546245083 a86.0,86.0 0 0,1 10.666146001902534,-42.60595125391555" fill="none" id="id34" stroke="none" /><text fill="#e1ed5e" style="font-size:6.75px; font-family:Arial;" text-anchor="middle"><textPath startOffset="22.20632615414155" xlink:href="#id34">October</textPath></text><path d="M 79.3925641242962 95.95851677861259 l -17.819175536942478 -3.494655976895062 a39.1586243205045,39.1586243205045 0 0,0 0.13541556519786924,-0.6603343877639279 l 17.75638067582961 3.8008660208223928" fill="#ff6909" stroke="none" /><line stroke="#e1ed5e" stroke-width="0.3" x1="26.266209847984243" x2="21.928928074336255" y1="57.711370442889674" y2="55.22380399835377" /><path d="M 25.398753493254645 57.213857153982495 a86.0,86.0 0 0,1 29.58750427330803,-30.492523968695096" fill="none" id="id35" stroke="none" /><text fill="#e1ed5e" style="font-size:6.75px; font-family:Arial;" text-anchor="middle"><textPath startOffset="21.46611528233685" xlink:href="#id35">November</textPath></text><path d="M 81.96595687620814 89.24020034530311 l -10.332540921049164 -6.1647889755666885 a33.03187537329173,33.03187537329173 0 0,0 0.29553178741048036,-0.48577655365143263 l 10.224893335352467 6.341733302425195" fill="#ff0000" stroke="none" /><line stroke="#e1ed5e" stroke-width="0.3" x1="56.762969772571076" x2="54.21961505331055" y1="26.818313649435495" y2="22.513508569990535" /><path d="M 56.25429882871897 25.957352633546506 a86.0,86.0 0 0,1 42.265352541879196,-11.944610805530505" fill="none" id="id36" stroke="none" /><text fill="#e1ed5e" style="font-size:6.75px; font-family:Arial;" text-anchor="middle"><textPath startOffset="22.20632615414155" xlink:href="#id36">December</textPath></text></svg>