<?xml version="1.0" encoding="utf-8" ?>
<svg baseProfile="full" height="200mm" version="1.1" viewBox="0,0,200,200" width="200mm" xmlns="http://www.w3.org/2000/svg" xmlns:ev="http://www.w3.org/2001/xml-events" xmlns:xlink="http://www.w3.org/1999/xlink"><defs /><rect fill="#1a1a1a" height="200" width="200" x="0" y="0" /><text alignment-baseline="middle" fill="#e1ed5e" style="dominant-baseline: central; font-size:9.0px; font-family:Arial;" text-anchor="middle" x="100.0" y="100.0">2023</text><line stroke="#e1ed5e" stroke-width="0.3" x1="100.0" x2="100.0" y1="15.0" y2="10.0" /><path d="M 100.0 14.0 a86.0,86.0 0 0,1 42.46469731375804,11.215312516191453" fill="none" id="id49" stroke="none" /><text fill="#e1ed5e" style="font-size:6.75px; font-family:Arial;" text-anchor="middle"><textPath startOffset="22.20632615414155" xlink:href="#id49">January</textPath></text><path d="M 102.88285421437855 79.19881850522331 l 1.8534186648714397 -13.373308244832005 a34.501130847398876,34.501130847398876 0 0,0 0.5875559333961722,0.0865904713496221 l -2.0833435786962675 13.339423289321413" fill="#ff880c" stroke="none" /><path d="M 103.59715602781102 79.31037775812273 l 4.631342846866711 -26.637914294922126 a48.037526043424165,48.037526043424165 0 0,0 0.8134466014851475,0.14865216700158482 l -5.089184569454759 26.5542466465698" fill="#c5ff1e" stroke="none" /><path d="M 103.95276090670814 79.375362276772 l 5.092123395060635 -26.569580792723208 a48.053139266480144,48.053139266480144 0 0,0 0.8110307945997536,0.16268514761512845 l -5.548720599127514 26.477991689030873" fill="#c4ff1e" stroke="none" /><path d="M 104.66035177308747 79.52364482259891 l 6.782979667161349 -29.802621687905496 a51.56476848656864,51.56476848656864 0 0,0 0.8637744828969606,0.2044275126674549 l -7.294977837020833 29.681448263097174" fill="#9bff22" stroke="none" /><path d="M 106.40334571778207 80.00007090966166 l 6.615546314643394 -20.662707125009874 a42.69591940377558,42.69591940377558 0 0,0 0.6980115500699732,0.2301234336495795 l -6.970240686955784 20.545769967101055" fill="#fff717" stroke="none" /><line stroke="#e1ed5e" stroke-width="0.3" x1="143.23703022742887" x2="145.7803849466894" y1="26.81831364943548" y2="22.513508569990506" /><path d="M 143.74570117128098 25.957352633546492 a86.0,86.0 0 0,1 28.547481713284135,27.462654790039103" fill="none" id="id50" stroke="none" /><text fill="#e1ed5e" style="font-size:6.75px; font-family:Arial;" text-anchor="middle"><textPath startOffset="19.985693538727396" xlink:href="#id50">February</textPath></text><path d="M 111.60114157652 82.49532879139004 l 16.218530284664173 -24.471733083106734 a50.358243215243476,50.358243215243476 0 0,0 0.7184330126295505,0.4850891771433368 l -16.637367991700266 24.188931993664728" fill="#a9ff21" stroke="none" /><path d="M 116.60985879189232 87.15038557335679 l 21.461225316152905 -16.602698065710722 a48.13362812326868,48.13362812326868 0 0,0 0.5013325026125767,0.6596948079027409 l -21.743833758989595 16.230818481926946" fill="#c3ff1e" stroke="none" /><path d="M 117.04232023915458 87.72973835380427 l 21.976743748601248 -15.82298608068586 a48.080327810077605,48.080327810077605 0 0,0 0.4777979833169337,0.6758113630902485 l -22.245854351722066 15.442348217263818" fill="#c4ff1e" stroke="none" /><path d="M 117.2510076193507 88.02491185347247 l 33.82786017362154 -23.482199783688518 a62.179337423119755,62.179337423119755 0 0,0 0.6027710400131299,0.8844921231795583 l -34.2270556793034 22.896429637238555" fill="#30ff39" stroke="none" /><path d="M 117.45458315368197 88.32363383020206 l 11.848007683618373 -7.925808074501341 a35.25460345659993,35.25460345659993 0 0,0 0.3330777116624551,0.5073002060102264 l -11.982682030638754 7.720689804513441" fill="#ff920d" stroke="none" /><path d="M 117.65298651832404 88.62581576622439 l 34.01418019888207 -21.91603963110359 a61.46328271055284,61.46328271055284 0 0,0 0.5653814316100897,0.8942976481626753 l -34.38638922673812 21.327294335226707" fill="#2fff30" stroke="none" /><line stroke="#e1ed5e" stroke-width="0.3" x1="172.23445277983987" x2="176.4835382374775" y1="55.19839476539836" y2="52.563006222186495" /><path d="M 173.08426987136738 54.67131705675599 a86.0,86.0 0 0,1 12.851231095245387,41.99856678651699" fill="none" id="id51" stroke="none" /><text fill="#e1ed5e" style="font-size:6.75px; font-family:Arial;" text-anchor="middle"><textPath startOffset="22.20632615414155" xlink:href="#id51">March</textPath></text><path d="M 118.03404312379186 89.2402003453031 l 23.29976367378684 -13.901529868307108 a48.13174376876192,48.13174376876192 0 0,0 0.4183801988505046,0.7151473797695634 l -23.53560354710767 13.49840307618365" fill="#c3ff1e" stroke="none" /><path d="M 118.3937258080291 89.86733742301442 l 23.59116781254568 -12.99580877394747 a47.93388654555264,47.93388654555264 0 0,0 0.3918980996596375,0.7261276596630806 l -23.811374011423784 12.58780013095193" fill="#c6ff1e" stroke="none" /><path d="M 118.89224826269711 90.83032412892265 l 31.529461572316297 -15.303363527070976 a56.047109471136935,56.047109471136935 0 0,0 0.4137926229692325,0.8715527942487937 l -31.788212389127285 14.758368317181642" fill="#68ff28" stroke="none" /><path d="M 119.34039704204932 91.81776055985345 l 24.845994970648857 -10.511463623860765 a47.9780342797109,47.9780342797109 0 0,0 0.31523467792527166,0.7633657767864072 l -25.023251335460326 10.082223276621054" fill="#c5ff1e" stroke="none" /><path d="M 119.47837535516314 92.15188598940014 l 37.52139384076344 -15.117902357337764 a61.452514970514244,61.452514970514244 0 0,0 0.3868770883377785,0.9845599911183917 l -37.77606447898292 14.469793361323587" fill="#2fff30" stroke="none" /><path d="M 120.08093135843002 93.85539295169968 l 60.24279407529006 -18.433821144900946 a84.0,84.0 0 0,0 0.41117641155319085,1.3862824530138804 l -60.551176383954946 17.394109305140535" fill="#4dd2ff" stroke="none" /><path d="M 120.28053869075195 94.5502522615342 l 26.336873469598263 -7.077194487671731 a48.2711860022618,48.2711860022618 0 0,0 0.20872384542744146,0.8042981202470334 l -26.454793646896007 6.622799941875847" fill="#c2ff1e" stroke="none" /><path d="M 120.37134235888165 94.90015583598534 l 22.611410140376066 -5.66063178425072 a44.30919605505885,44.30919605505885 0 0,0 0.17885554629912787,0.7414717079545934 l -22.705498486936012 5.27057484463672" fill="#f3ff19" stroke="none" /><path d="M 120.78858239683441 97.02765380044208 l 24.687761113428902 -3.529849776205426 a45.93883293653313,45.93883293653313 0 0,0 0.10518680410486499,0.7837638680054997 l -24.744863916591605 3.104367566135262" fill="#deff1b" stroke="none" /><path d="M 120.83666639777658 97.38593545837742 l 40.11704999847313 -5.032885583209168 a61.43151787743898,61.43151787743898 0 0,0 0.1225987251760564,1.0503510075287246 l -40.19773907665277 4.341590837355591" fill="#2fff30" stroke="none" /><path d="M 120.96714384426684 98.82574320788733 l 27.05059080143147 -1.5149578891226454 a48.092979904622965,48.092979904622965 0 0,0 0.03917606454605056,0.8269448044267913 l -27.072660474211016 1.0491019780728543" fill="#c4ff1e" stroke="none" /><line stroke="#e1ed5e" stroke-width="0.3" x1="184.98032266829074" x2="189.97916517819016" y1="98.17113171792111" y2="98.06355123074" /><path d="M 185.9800911702706 98.14961562048488 a86.0,86.0 0 0,1 -9.607161424134198,41.387399972396054" fill="none" id="id52" stroke="none" /><text fill="#e1ed5e" style="font-size:6.75px; font-family:Arial;" text-anchor="middle"><textPath startOffset="21.466115282336823" xlink:href="#id52">April</textPath></text><path d="M 120.99513854157772 99.54816195383933 l 45.34564392660699 -0.9758872089898469 a66.3561437840928,66.3561437840928 0 0,0 0.014746840511247835,1.1421590491845786 l -45.355723774235955 0.1951919017448057" fill="#36ff6d" stroke="none" /><path d="M 120.99980553446 99.90962569577887 l 30.907165602139603 -0.133011402517849 a51.90745181329709,51.90745181329709 0 0,0 -0.0038453601657589525,0.8935262781478979 l -30.904875944684342 -0.39902435383373364" fill="#97ff23" stroke="none" /><path d="M 120.99824983174949 100.27111621757518 l 16.872719102178227 0.21784995510790192 a37.87412541449039,37.87412541449039 0 0,0 -0.014027741587336776,0.6518140306113936 l -16.866469297905883 -0.5082538015094104" fill="#ffb710" stroke="none" /><path d="M 120.9764740272857 100.99374915477107 l 4.308993141092256 0.20413622834346426 a25.31382585296421,25.31382585296421 0 0,0 -0.024365942546952755,0.43507027229020767 l -4.304840847657774 -0.27827821696909527" fill="#ff0000" stroke="none" /><path d="M 120.8583938346157 102.4346265915055 l 13.177032076204839 1.5380452082848695 a34.26649001808916,34.26649001808916 0 0,0 -0.07342573020104552,0.585275313922704 l -13.148604836756945 -1.7646382764949684" fill="#ff840c" stroke="none" /><line stroke="#e1ed5e" stroke-width="0.3" x1="174.80103733775053" x2="179.2010983576182" y1="140.37084112569926" y2="142.7455964860345" /><path d="M 175.68104954172406 140.8457921977663 a86.0,86.0 0 0,1 -30.038265399797805,32.042727171017184" fill="none" id="id53" stroke="none" /><text fill="#e1ed5e" style="font-size:6.75px; font-family:Arial;" text-anchor="middle"><textPath startOffset="22.206326154141568" xlink:href="#id53">May</textPath></text><line stroke="#e1ed5e" stroke-width="0.3" x1="143.8653032363475" x2="146.44561519142675" y1="172.8068346515853" y2="177.08958963109032" /><path d="M 144.38136562736335 173.6633856474863 a86.0,86.0 0 0,1 -40.68145358897372,12.25698825130547" fill="none" id="id54" stroke="none" /><text fill="#e1ed5e" style="font-size:6.75px; font-family:Arial;" text-anchor="middle"><textPath startOffset="21.466115282336833" xlink:href="#id54">June</textPath></text><line stroke="#e1ed5e" stroke-width="0.3" x1="102.19456741930631" x2="102.32365962044197" y1="184.97166512339345" y2="189.96999836594603" /><path d="M 102.22038585953345 185.97133177190398 a86.0,86.0 0 0,1 -42.740103519485714,-10.115201625700543" fill="none" id="id55" stroke="none" /><text fill="#e1ed5e" style="font-size:6.75px; font-family:Arial;" text-anchor="middle"><textPath startOffset="22.20632615414155" xlink:href="#id55">July</textPath></text><line stroke="#e1ed5e" stroke-width="0.3" x1="58.666819895761336" x2="56.23545636021788" y1="174.27360380694188" y2="178.64263932499728" /><path d="M 58.180547188652646 175.14741091055294 a86.0,86.0 0 0,1 -31.652253787137756,-30.449443065178592" fill="none" id="id56" stroke="none" /><text fill="#e1ed5e" style="font-size:6.75px; font-family:Arial;" text-anchor="middle"><textPath startOffset="22.20632615414155" xlink:href="#id56">August</textPath></text><line stroke="#e1ed5e" stroke-width="0.3" x1="26.63291911575756" x2="22.317208475507996" y1="142.92168965132927" y2="145.44649492493687" /><path d="M 25.769776987707644 143.4266507060508 a86.0,86.0 0 0,1 -11.730757126820373,-40.83630448921669" fill="none" id="id57" stroke="none" /><text fill="#e1ed5e" style="font-size:6.75px; font-family:Arial;" text-anchor="middle"><textPath startOffset="21.46611528233685" xlink:href="#id57">September</textPath></text><line stroke="#e1ed5e" stroke-width="0.3" x1="15.007084014347285" x2="10.007500721073583" y1="101.09737516637583" y2="101.16192664675087" /><path d="M 14.007167355692545 101.11028546245083 a86.0,86.0 0 0,1 10.666146001902534,-42.60595125391555" fill="none" id="id58" stroke="none" /><text fill="#e1ed5e" style="font-size:6.75px; font-family:Arial;" text-anchor="middle"><textPath startOffset="22.20632615414155" xlink:href="#id58">October</textPath></text><line stroke="#e1ed5e" stroke-width="0.3" x1="26.266209847984243" x2="21.928928074336255" y1="57.711370442889674" y2="55.22380399835377" /><path d="M 25.398753493254645 57.213857153982495 a86.0,86.0 0 0,1 29.58750427330803,-30.492523968695096" fill="none" id="id59" stroke="none" /><text fill="#e1ed5e" style="font-size:6.75px; font-family:Arial;" text-anchor="middle"><textPath startOffset="21.46611528233685" xlink:href="#id59">November</textPath></text><line stroke="#e1ed5e" stroke-width="0.3" x1="56.762969772571076" x2="54.21961505331055" y1="26.818313649435495" y2="22.513508569990535" /><path d="M 56.25429882871897 25.957352633546506 a86.0,86.0 0 0,1 42.265352541879196,-11.944610805530505" fill="none" id="id60" stroke="none" /><text fill="#e1ed5e" style="font-size:6.75px; font-family:Arial;" text-anchor="middle"><textPath startOffset="22.20632615414155" xlink:href="#id60">December</textPath></text></svg>