<?xml version="1.0" encoding="utf-8" ?>
<svg baseProfile="full" height="200mm" version="1.1" viewBox="0,0,200,200" width="200mm" xmlns="http://www.w3.org/2000/svg" xmlns:ev="http://www.w3.org/2001/xml-events" xmlns:xlink="http://www.w3.org/1999/xlink"><defs /><rect fill="#1a1a1a" height="200" width="200" x="0" y="0" /><text alignment-baseline="middle" fill="#e1ed5e" style="dominant-baseline: central; font-size:9.0px; font-family:Arial;" text-anchor="middle" x="100.0" y="100.0">2023</text><line stroke="#e1ed5e" stroke-width="0.3" x1="100.0" x2="100.0" y1="15.0" y2="10.0" /><path d="M 100.0 14.0 a86.0,86.0 0 0,1 42.46469731375804,11.215312516191453" fill="none" id="id37" stroke="none" /><text fill="#e1ed5e" style="font-size:6.75px; font-family:Arial;" text-anchor="middle"><textPath startOffset="22.20632615414155" xlink:href="#id37">January</textPath></text><path d="M 102.88285421437855 79.19881850522331 l 2.204546780057771 -15.906866693775003 a37.05890514695792,37.05890514695792 0 0,0 0.6311149539002046,0.09300993867619714 l -2.4780307143866316 15.866562270937836" fill="#ff970d" stroke="none" /><path d="M 103.59715602781102 79.31037775812273 l 5.508745624460303 -31.684437682297116 a53.15975543436828,53.15975543436828 0 0,0 0.9001842092113305,0.16450291040070877 l -6.053324954774534 31.58491929054567" fill="#94ff23" stroke="none" /><path d="M 103.95276090670814 79.375362276772 l 6.056820537639528 -31.603158473720057 a53.178326565255624,53.178326565255624 0 0,0 0.8975326296692049,0.18003660196304633 l -6.599919576775858 31.4942179156798" fill="#93ff23" stroke="none" /><path d="M 104.66035177308747 79.52364482259891 l 8.06800765949722 -35.44869538902008 a57.35523005534746,57.35523005534746 0 0,0 0.9607719696326852,0.2273836839146947 l -8.677003316092428 35.30456579296452" fill="#63ff29" stroke="none" /><path d="M 106.40334571778207 80.00007090966166 l 7.8688542436156865 -24.57723412582388 a46.80618732751567,46.80618732751567 0 0,0 0.7652080064226383,0.2522770488202873 l -8.290745072280743 24.438143352744355" fill="#e2ff1b" stroke="none" /><line stroke="#e1ed5e" stroke-width="0.3" x1="143.23703022742887" x2="145.7803849466894" y1="26.81831364943548" y2="22.513508569990506" /><path d="M 143.74570117128098 25.957352633546492 a86.0,86.0 0 0,1 28.547481713284135,27.462654790039103" fill="none" id="id38" stroke="none" /><text fill="#e1ed5e" style="font-size:6.75px; font-family:Arial;" text-anchor="middle"><textPath startOffset="19.985693538727396" xlink:href="#id38">February</textPath></text><path d="M 111.60114157652 82.49532879139004 l 19.291112900714168 -29.107875836859723 a55.920129906432805,55.920129906432805 0 0,0 0.7977813527687435,0.5386655306086781 l -19.789298947889453 28.771498393952378" fill="#73ff27" stroke="none" /><path d="M 116.60985879189232 87.15038557335679 l 25.52703070469023 -19.748060842784692 a53.27406394689897,53.27406394689897 0 0,0 0.554872359391711,0.7301469835526132 l -25.863179004306055 19.305729083351043" fill="#92ff23" stroke="none" /><path d="M 117.04232023915458 87.72973835380427 l 26.140213533726456 -18.82063328497586 a53.21066594835253,53.21066594835253 0 0,0 0.5287806892977346,0.7479227851262428 l -26.460306842828075 18.367883999517826" fill="#93ff23" stroke="none" /><path d="M 117.2510076193507 88.02491185347247 l 40.23651085178572 -27.93087654882046 a69.98071733153077,69.98071733153077 0 0,0 0.6783981868405575,0.995465629249038 l -40.71133350429501 27.234132896301016" fill="#3aff93" stroke="none" /><path d="M 117.45458315368197 88.32363383020206 l 14.092599629038677 -9.427343644027559 a37.955122308227914,37.955122308227914 0 0,0 0.3585916176835191,0.5461596352887851 l -14.25278788208012 9.1833659447611" fill="#ffa30f" stroke="none" /><path d="M 117.65298651832404 88.62581576622439 l 40.45812899966214 -26.06800908834013 a69.12900684600801,69.12900684600801 0 0,0 0.6358960200749121,1.0058347929989757 l -40.900852615983005 25.36772664762695" fill="#39ff89" stroke="none" /><line stroke="#e1ed5e" stroke-width="0.3" x1="172.23445277983987" x2="176.4835382374775" y1="55.19839476539836" y2="52.563006222186495" /><path d="M 173.08426987136738 54.67131705675599 a86.0,86.0 0 0,1 12.851231095245387,41.99856678651699" fill="none" id="id39" stroke="none" /><text fill="#e1ed5e" style="font-size:6.75px; font-family:Arial;" text-anchor="middle"><textPath startOffset="22.20632615414155" xlink:href="#id39">March</textPath></text><path d="M 118.03404312379186 89.2402003453031 l 27.713878119769934 -16.53515931932148 a53.27182260351601,53.27182260351601 0 0,0 0.4630598018859423,0.7915193044632431 l -27.994397596126202 16.055660602504343" fill="#92ff23" stroke="none" /><path d="M 118.3937258080291 89.86733742301442 l 28.060488450167618 -15.457850365847962 a53.03648154830577,53.03648154830577 0 0,0 0.433615920371116,0.8034244456025348 l -28.322412469757197 14.972544936912968" fill="#95ff23" stroke="none" /><path d="M 118.89224826269711 90.83032412892265 l 37.50268317872286 -18.20256881355945 a62.686745579572765,62.686745579572765 0 0,0 0.462812678897108,0.974801533705777 l -37.810454051461726 17.55432486421313" fill="#30ff37" stroke="none" /><path d="M 119.34039704204932 91.81776055985345 l 29.553041224862636 -12.502848776093455 a53.088993021849284,53.088993021849284 0 0,0 0.34881570009834295,0.844684885601285 l -29.763878611847176 11.992289320038866" fill="#94ff23" stroke="none" /><path d="M 119.47837535516314 92.15188598940014 l 44.629780385141494 -17.981972230439645 a69.11619916953399,69.11619916953399 0 0,0 0.4351241589463549,1.1073435232576605 l -44.93269809396955 17.2110797022862" fill="#39ff88" stroke="none" /><path d="M 120.08093135843002 93.85539295169968 l 36.24726652366772 -11.091378451898757 a58.90623967635205,58.90623967635205 0 0,0 0.2883435267644599,0.9721510290042487 l -36.43281594754388 10.465798036147978" fill="#52ff2b" stroke="none" /><path d="M 120.28053869075195 94.5502522615342 l 31.326365005728 -8.417961152194147 a53.437682013854655,53.437682013854655 0 0,0 0.23106369253363587,0.8903826641443643 l -31.46662503013194 7.877482062500932" fill="#90ff24" stroke="none" /><path d="M 120.37134235888165 94.90015583598534 l 26.89511677114212 -6.733032212086956 a48.725097455236664,48.725097455236664 0 0,0 0.19668047944281358,0.815367563552612 l -27.007030050845753 6.269079416874938" fill="#caff1d" stroke="none" /><path d="M 120.78858239683441 97.02765380044208 l 22.697154658133464 -3.245233373832851 a43.9279822318901,43.9279822318901 0 0,0 0.1005825304297885,0.7494566811331215 l -22.74965318762109 2.8540583506350656" fill="#fff617" stroke="none" /><path d="M 120.83666639777658 97.38593545837742 l 47.71718072974359 -5.986360187881543 a69.09122420040964,69.09122420040964 0 0,0 0.13788518175186015,1.1813160321885026 l -47.813156264499035 5.1641004173681875" fill="#39ff88" stroke="none" /><path d="M 120.96714384426684 98.82574320788733 l 32.17529529632344 -1.8019649848622339 a53.225714968209516,53.225714968209516 0 0,0 0.04335713963325918,0.9152006912890672 l -32.201546044190195 1.247853186950167" fill="#93ff23" stroke="none" /><line stroke="#e1ed5e" stroke-width="0.3" x1="184.98032266829074" x2="189.97916517819016" y1="98.17113171792111" y2="98.06355123074" /><path d="M 185.9800911702706 98.14961562048488 a86.0,86.0 0 0,1 -9.607161424134198,41.387399972396054" fill="none" id="id40" stroke="none" /><text fill="#e1ed5e" style="font-size:6.75px; font-family:Arial;" text-anchor="middle"><textPath startOffset="21.466115282336823" xlink:href="#id40">April</textPath></text><path d="M 120.99513854157772 99.54816195383933 l 53.93632599193757 -1.1607679608791253 a74.9488150358056,74.9488150358056 0 0,0 0.01665645649084564,1.2900609112750736 l -53.94831545554613 0.23217079154358908" fill="#41ffcd" stroke="none" /><path d="M 120.99980553446 99.90962569577887 l 36.76249392558878 -0.1582102655430157 a57.76283435913334,57.76283435913334 0 0,0 -0.004279133237071058,0.9943198634722495 l -36.759770495062206 -0.4746190761329186" fill="#5eff29" stroke="none" /><path d="M 120.8583938346157 102.4346265915055 l 15.947119168046903 1.8613744036226518 a37.05538303592756,37.05538303592756 0 0,0 -0.07940172909031844,0.6329099049079652 l -15.912715929709737 -2.1356020628180117" fill="#ff970d" stroke="none" /><path d="M 120.81339534386255 102.79330883721812 l 28.785250406243176 3.8631896916812036 a50.04332755632582,50.04332755632582 0 0,0 -0.12192925450983215,0.8527729220570834 l -28.71448710071674 -4.358108085718697" fill="#b9ff1f" stroke="none" /><path d="M 120.70491114924044 103.5080841355445 l 6.048354966404715 1.0247876917146084 a27.134556839146764,27.134556839146764 0 0,0 -0.08198972223777908,0.45984190410552594 l -6.029818801827748 -1.1287483465533525" fill="#ff0000" stroke="none" /><path d="M 120.64145759157962 103.86396538481128 l 32.14098936885311 6.016613400668853 a53.699278805836634,53.699278805836634 0 0,0 -0.17789821074669304,0.9070991439391326 l -32.03266122513076 -6.568976271675931" fill="#8dff24" stroke="none" /><path d="M 120.5718875245553 104.21870165774334 l 31.963341396973284 6.554760771342607 a53.62851639331764,53.62851639331764 0 0,0 -0.19323110688963532,0.9027114014405342 l -31.845776251359204 -7.10398599219931" fill="#8eff24" stroke="none" /><path d="M 120.49622156327973 104.57218783832717 l 22.07200460321088 4.923705118171721 a43.6145143501883,43.6145143501883 0 0,0 -0.16976312953324638,0.7313351189153376 l -21.98398090774708 -5.302908894435624" fill="#fff216" stroke="none" /><path d="M 120.41448212921028 104.9243191809786 l 37.45226446682408 9.034121126255558 a59.526451409606764,59.526451409606764 0 0,0 -0.24884518732991903,0.9940128251815585 l -37.291207965199106 -9.677461790834512" fill="#4bff2c" stroke="none" /><path d="M 120.23288151984713 105.62410040840565 l 37.07992234827038 10.307044313880468 a59.48578703680174,59.48578703680174 0 0,0 -0.2827199784237253,0.9841853342696766 l -36.897009732960555 -10.943787123654728" fill="#4bff2c" stroke="none" /><path d="M 119.9155931802556 106.66101706037122 l 15.254548590443857 5.102072907873298 a37.08516088372968,37.08516088372968 0 0,0 -0.2076930931367642,0.6036533476373204 l -15.16446466636386 -5.363898958599918" fill="#ff970d" stroke="none" /><path d="M 119.79798401119884 107.00284435728193 l 46.526072429373265 16.456970749861586 a70.35085918163013,70.35085918163013 0 0,0 -0.4136487774461433,1.1381837804509658 l -46.235899390921894 -17.255402327318684" fill="#3bff97" stroke="none" /><path d="M 119.54520255179757 107.68017299344265 l 15.460177040443101 6.074986118214109 a37.61091600298846,37.61091600298846 0 0,0 -0.24195887749469253,0.6005220910387082 l -15.353315548691016 -6.34020757709563" fill="#ff9e0e" stroke="none" /><path d="M 119.26925614724726 108.34839909993367 l 14.797087014946781 6.410833245105272 a37.12614544844656,37.12614544844656 0 0,0 -0.25910321928730085,0.5842093582406475 l -14.684542710928207 -6.664590939838607" fill="#ff980e" stroke="none" /><path d="M 118.97047184881838 109.00673069616215 l 14.553473946136046 6.909644713693523 a37.11045604476588,37.11045604476588 0 0,0 -0.2789411729623374,0.5747014359487175 l -14.432379516558996 -7.159135105607516" fill="#ff970e" stroke="none" /><line stroke="#e1ed5e" stroke-width="0.3" x1="174.80103733775053" x2="179.2010983576182" y1="140.37084112569926" y2="142.7455964860345" /><path d="M 175.68104954172406 140.8457921977663 a86.0,86.0 0 0,1 -30.038265399797805,32.042727171017184" fill="none" id="id41" stroke="none" /><text fill="#e1ed5e" style="font-size:6.75px; font-family:Arial;" text-anchor="middle"><textPath startOffset="22.206326154141568" xlink:href="#id41">May</textPath></text><path d="M 118.48025628344425 109.97397251340804 l 40.07682570049187 21.62984927430089 a66.541215814431,66.541215814431 0 0,0 -0.5526837038959547,1.0032814604049078 l -39.6985655871444 -22.316501253103606" fill="#35ff69" stroke="none" /><path d="M 117.94076556474637 110.91462005526583 l 34.67701229097466 21.096447219147546 a61.59008828148426,61.59008828148426 0 0,0 -0.5588137935045038,0.9009857653146972 l -34.308733857802196 -21.690229315827516" fill="#35ff2f" stroke="none" /><path d="M 117.14729908036423 112.12312394758627 l 26.789882365573003 18.940421050391947 a53.80910463160142,53.80910463160142 0 0,0 -0.5412176310652269,0.7517039533178927 l -26.459884942132174 -19.398758609160968" fill="#8cff24" stroke="none" /><path d="M 116.93607887273984 112.41649034213515 l 25.85976224306305 18.958785593383297 a53.06497862846048,53.06497862846048 0 0,0 -0.5464144648319194,0.7320114694180218 l -25.52958651153604 -19.401109942310633" fill="#95ff23" stroke="none" /><path d="M 116.71984013943494 112.70617746262583 l 25.568336071163312 19.43055751938773 a53.11364779906179,53.11364779906179 0 0,0 -0.5594465145634767,0.7231600342223794 l -25.230082739381768 -19.86779554772336" fill="#94ff23" stroke="none" /><path d="M 116.27256486870786 113.27417163493432 l 37.00584553791392 30.187124717551917 a68.7566236525257,68.7566236525257 0 0,0 -0.7560085445324949,0.9106609937054807 l -36.480740993487885 -30.819646968371167" fill="#38ff84" stroke="none" /><path d="M 116.0416608686014 113.55231037782055 l 12.27504168621645 10.370196464999504 a37.06915128813715,37.06915128813715 0 0,0 -0.4159820554715969,0.4838811087011589 l -12.094717121174074 -10.579954672862192" fill="#ff970d" stroke="none" /><path d="M 115.80600337817218 113.82643327865902 l 23.271232508165838 20.356704720856786 a51.918371392123284,51.918371392123284 0 0,0 -0.5941962430841768,0.6675857781361969 l -22.917377415433325 -20.75426466873385" fill="#a3ff22" stroke="none" /><path d="M 114.29624159901734 115.38237550388516 l 21.11837609087753 22.72281066406134 a52.021152995827336,52.021152995827336 0 0,0 -0.6611651986590246,0.6039587328994644 l -20.72411134275164 -23.082962163547386" fill="#a1ff22" stroke="none" /><path d="M 113.75828350139079 115.86535959552629 l 31.506012606266328 36.33114693188802 a69.08930304893853,69.08930304893853 0 0,0 -0.9051834508568409,0.7714169743557848 l -30.875963678832438 -36.86808829646675" fill="#39ff88" stroke="none" /><path d="M 113.20401910651253 116.32954008644616 l 12.854385093263035 15.897144269014582 a41.443933379752686,41.443933379752686 0 0,0 -0.5585902293076317,0.44377786130177604 l -12.578837371238052 -16.116056044321486" fill="#ffd413" stroke="none" /><path d="M 112.34349029814194 116.9893568818739 l 24.531084880294696 33.76414171878137 a62.734774366350365,62.734774366350365 0 0,0 -0.8791014137896771,0.6272155171487354 l -23.946256138656132 -34.181401497774324" fill="#30ff38" stroke="none" /><path d="M 111.7513745106137 117.40417183066458 l 17.95898522400711 26.59784729528314 a53.09315551670335,53.09315551670335 0 0,0 -0.7618243371865034,0.5048956296758116 l -17.498486188080644 -26.90304094605027" fill="#94ff23" stroke="none" /><line stroke="#e1ed5e" stroke-width="0.3" x1="143.8653032363475" x2="146.44561519142675" y1="172.8068346515853" y2="177.08958963109032" /><path d="M 144.38136562736335 173.6633856474863 a86.0,86.0 0 0,1 -40.68145358897372,12.25698825130547" fill="none" id="id42" stroke="none" /><text fill="#e1ed5e" style="font-size:6.75px; font-family:Arial;" text-anchor="middle"><textPath startOffset="21.466115282336833" xlink:href="#id42">June</textPath></text><path d="M 110.8373102113329 117.98757091392108 l 21.36887318631281 35.46766811080451 a62.407538232439,62.407538232439 0 0,0 -0.924915761331411,0.546456534753014 l -20.75518955395302 -35.830243217851276" fill="#30ff33" stroke="none" /><path d="M 110.5260780823613 118.17145234162733 l 14.890593846442272 25.706033557985485 a50.70740558150409,50.70740558150409 0 0,0 -0.7590445462272706,0.4310053031936318 l -14.445900533293802 -25.958542026973745" fill="#b1ff20" stroke="none" /><path d="M 109.89434966115114 118.52300852407294 l 22.66240905428713 42.42582993976685 a69.09922899820592,69.09922899820592 0 0,0 -1.053957698882397,0.5513808549381639 l -21.92876045287824 -42.809640213649736" fill="#39ff88" stroke="none" /><path d="M 109.57404056367764 118.69057910512821 l 9.53569710466892 18.61572445530716 a41.91589625782056,41.91589625782056 0 0,0 -0.6449980038899771,0.32341538908935097 l -9.213845193096182 -18.77710768530581" fill="#ffdb14" stroke="none" /><path d="M 108.92500713936063 119.00905698771935 l 4.096738717257099 8.725498873462561 a30.639377506264072,30.639377506264072 0 0,0 -0.47933410002721816,0.2200387754695213 l -3.945936621462462 -8.794724719266156" fill="#ff3705" stroke="none" /><path d="M 108.59647513512805 119.15986991738527 l 25.789425405384144 57.479609752155824 a84.0,84.0 0 0,0 -1.3243173013689848,0.5805417868221818 l -24.796187429357403 -57.91501609227246" fill="#4dd2ff" stroke="none" /><path d="M 107.59598834532513 119.57807347666477 l 7.985869703037627 20.582962573575365 a43.077872705926595,43.077872705926595 0 0,0 -0.6936148375319973,0.26226578129221517 l -7.630384644745355 -20.717376604974213" fill="#ffea16" stroke="none" /><path d="M 107.2578585660854 119.70592522655815 l 2.223204947107179 6.036258498577734 a27.432655509079726,27.432655509079726 0 0,0 -0.4445140985582274,0.15938694068888104 l -2.1189712879192166 -6.073632980306575" fill="#ff0500" stroke="none" /><path d="M 105.53697534728816 120.25689768951611 l 8.46109785048431 30.954732999161667 a53.09027378949669,53.09027378949669 0 0,0 -0.8835980039611121,0.23336626374341626 l -7.9270094037117 -31.095790612208667" fill="#94ff23" stroke="none" /><path d="M 101.98527174616119 120.90594882070398 l 3.0307134644393368 31.914996372815363 a53.05857479022347,53.05857479022347 0 0,0 -0.9099689144397319,0.07851594688736448 l -2.480900232258063 -31.962436571981392" fill="#95ff23" stroke="none" /><path d="M 100.90346689309514 120.98055641714683 l 1.3792452497892023 32.02921213543217 a53.05889498213532,53.05889498213532 0 0,0 -0.9128142342703526,0.03143916788340147 l -0.8277106638441974 -32.048208101741665" fill="#95ff23" stroke="none" /><line stroke="#e1ed5e" stroke-width="0.3" x1="102.19456741930631" x2="102.32365962044197" y1="184.97166512339345" y2="189.96999836594603" /><path d="M 102.22038585953345 185.97133177190398 a86.0,86.0 0 0,1 -42.740103519485714,-10.115201625700543" fill="none" id="id43" stroke="none" /><text fill="#e1ed5e" style="font-size:6.75px; font-family:Arial;" text-anchor="middle"><textPath startOffset="22.20632615414155" xlink:href="#id43">July</textPath></text><path d="M 100.18074693466247 120.99922214144158 l 0.2759004945673565 32.05418551176538 a53.055372871104964,53.055372871104964 0 0,0 -0.9132948584596019,0.0 l 0.27590049456733445 -32.05418551176538" fill="#95ff23" stroke="none" /><path d="M 99.45781275523022 120.99299961872073 l -0.9114456456075651 35.290350843367456 a56.302118857270635,56.302118857270635 0 0,0 -0.9686099857489135,-0.03336088637995451 l 1.5187759830311216 -35.269433158561405" fill="#6fff27" stroke="none" /><path d="M 97.65516085044442 120.86867818915974 l -4.2735809866560395 38.03415954682422 a59.273499799244746,59.273499799244746 0 0,0 -1.0129349341770437,-0.12265231401782556 l 4.927643343884473 -37.95496170408104" fill="#4eff2c" stroke="none" /><path d="M 93.76903079525671 120.05430185196036 l -9.529576031109144 30.670829524175545 a53.117169910092144,53.117169910092144 0 0,0 -0.8708146575820238,-0.2788073539372451 l 10.056112033782108 -30.502249323578596" fill="#94ff23" stroke="none" /><path d="M 93.08242187328487 119.8279376855182 l -5.812773850100336 16.661223851551807 a38.646096454001636,38.646096454001636 0 0,0 -0.6262147943482685,-0.22453834559808128 l 6.0987082050783314 -16.55869796491377" fill="#ffad10" stroke="none" /><path d="M 91.40352486487194 119.15986991738527 l -13.137917665360193 29.28186140212336 a53.094116092438895,53.094116092438895 0 0,0 -0.8306245891812504,-0.3812990093296894 l 13.640010250308862 -29.0513753224596" fill="#94ff23" stroke="none" /><line stroke="#e1ed5e" stroke-width="0.3" x1="58.666819895761336" x2="56.23545636021788" y1="174.27360380694188" y2="178.64263932499728" /><path d="M 58.180547188652646 175.14741091055294 a86.0,86.0 0 0,1 -31.652253787137756,-30.449443065178592" fill="none" id="id44" stroke="none" /><text fill="#e1ed5e" style="font-size:6.75px; font-family:Arial;" text-anchor="middle"><textPath startOffset="22.20632615414155" xlink:href="#id44">August</textPath></text><line stroke="#e1ed5e" stroke-width="0.3" x1="26.63291911575756" x2="22.317208475507996" y1="142.92168965132927" y2="145.44649492493687" /><path d="M 25.769776987707644 143.4266507060508 a86.0,86.0 0 0,1 -11.730757126820373,-40.83630448921669" fill="none" id="id45" stroke="none" /><text fill="#e1ed5e" style="font-size:6.75px; font-family:Arial;" text-anchor="middle"><textPath startOffset="21.46611528233685" xlink:href="#id45">September</textPath></text><line stroke="#e1ed5e" stroke-width="0.3" x1="15.007084014347285" x2="10.007500721073583" y1="101.09737516637583" y2="101.16192664675087" /><path d="M 14.007167355692545 101.11028546245083 a86.0,86.0 0 0,1 10.666146001902534,-42.60595125391555" fill="none" id="id46" stroke="none" /><text fill="#e1ed5e" style="font-size:6.75px; font-family:Arial;" text-anchor="middle"><textPath startOffset="22.20632615414155" xlink:href="#id46">October</textPath></text><line stroke="#e1ed5e" stroke-width="0.3" x1="26.266209847984243" x2="21.928928074336255" y1="57.711370442889674" y2="55.22380399835377" /><path d="M 25.398753493254645 57.213857153982495 a86.0,86.0 0 0,1 29.58750427330803,-30.492523968695096" fill="none" id="id47" stroke="none" /><text fill="#e1ed5e" style="font-size:6.75px; font-family:Arial;" text-anchor="middle"><textPath startOffset="21.46611528233685" xlink:href="#id47">November</textPath></text><line stroke="#e1ed5e" stroke-width="0.3" x1="56.762969772571076" x2="54.21961505331055" y1="26.818313649435495" y2="22.513508569990535" /><path d="M 56.25429882871897 25.957352633546506 a86.0,86.0 0 0,1 42.265352541879196,-11.944610805530505" fill="none" id="id48" stroke="none" /><text fill="#e1ed5e" style="font-size:6.75px; font-family:Arial;" text-anchor="middle"><textPath startOffset="22.20632615414155" xlink:href="#id48">December</textPath></text></svg>